<svg width="80" height="80" viewBox="0 0 80 80" fill="none" xmlns="http://www.w3.org/2000/svg">
<path d="M40.0115 51.3484C39.6744 51.3484 39.3485 51.1656 39.1799 50.8448C38.9402 50.386 39.12 49.8265 39.577 49.5878L49.245 44.5823C49.5222 44.4405 49.8519 44.4405 50.1253 44.5897L52.1631 45.69C52.6163 45.9362 52.7849 46.5031 52.5414 46.9544C52.2942 47.4058 51.7248 47.5736 51.2716 47.3274L49.6721 46.4621L40.4422 51.2401C40.3036 51.311 40.1575 51.3445 40.0115 51.3445L40.0115 51.3484Z" fill="#635BFF"/>
<path d="M16.9365 65C16.4195 65 16 64.5823 16 64.0675V58.6666C16 54.6085 18.225 50.8823 21.8099 48.9461L29.8709 44.5896C30.1444 44.4404 30.474 44.4404 30.7512 44.5821L40.4193 49.5877C40.88 49.8264 41.0561 50.3896 40.8163 50.8447C40.5766 51.3035 40.011 51.4788 39.554 51.2401L30.3241 46.462L22.6976 50.5799C19.7196 52.1912 17.8691 55.287 17.8691 58.6626V64.0635C17.8691 64.5782 17.4496 64.9959 16.9326 64.9959L16.9365 65Z" fill="#635BFF"/>
<path d="M37.6772 45.0482C36.4336 45.0482 35.2387 44.5707 34.3135 43.7055L30.3203 39.968C29.249 38.9684 28.6384 37.5324 28.6384 36.0292V26.3202C28.6384 25.8055 29.058 25.3877 29.5749 25.3877C30.0918 25.3877 30.5114 25.8055 30.5114 26.3202V36.0292C30.5114 37.0177 30.9084 37.9576 31.6051 38.6103L35.5983 42.3477C36.1751 42.8886 36.9168 43.187 37.681 43.187H42.3484C43.1125 43.187 43.8542 42.8886 44.4311 42.3477L48.4242 38.6103C49.1172 37.9613 49.518 37.0213 49.518 36.0292V26.958C49.518 26.4433 49.9375 26.0256 50.4545 26.0256C50.9714 26.0256 51.3909 26.4433 51.3909 26.958V36.0292C51.3909 37.5324 50.7766 38.9684 49.709 39.968L45.7159 43.7055C44.7907 44.5708 43.5958 45.0482 42.3521 45.0482H37.6772Z" fill="#635BFF"/>
<path d="M29.56 33.9517C29.4401 33.9517 29.3165 33.9294 29.1966 33.8771L27.1251 33.0081C25.9564 32.5157 25.241 31.296 25.3833 30.039L25.4695 29.3042C25.623 27.9764 26.7019 26.9133 28.0391 26.7791L29.4663 26.6373C29.9833 26.5851 30.4402 26.9581 30.4927 27.4729C30.5451 27.9839 30.1705 28.4426 29.6536 28.4948L28.2264 28.6366C27.7619 28.6851 27.3836 29.0543 27.3274 29.5168L27.2413 30.2516C27.1888 30.6918 27.4398 31.117 27.8481 31.2885L29.9196 32.1576C30.3953 32.359 30.6201 32.9036 30.4178 33.3772C30.268 33.7353 29.9196 33.9479 29.5562 33.9479L29.56 33.9517Z" fill="#635BFF"/>
<path d="M50.44 33.9517C50.0729 33.9517 49.7283 33.7391 49.5785 33.381C49.3762 32.9074 49.6009 32.3591 50.0767 32.1614L52.1482 31.2923C52.5565 31.1208 52.8074 30.6955 52.755 30.2554L52.6688 29.5206C52.6164 29.0581 52.2381 28.6851 51.7698 28.6404L50.3426 28.4986C49.8294 28.4464 49.4511 27.9914 49.5036 27.4767C49.556 26.9656 50.013 26.5889 50.5299 26.6411L51.9571 26.7829C53.2944 26.9172 54.3732 27.9802 54.5268 29.308L54.6129 30.0428C54.759 31.2998 54.0436 32.5195 52.8711 33.0119L50.7996 33.8809C50.6797 33.9294 50.5561 33.9555 50.4363 33.9555L50.44 33.9517Z" fill="#635BFF"/>
<path d="M32.34 47.2978C31.823 47.2978 31.4035 46.8801 31.4035 46.3654V40.681C31.4035 40.1662 31.823 39.7485 32.34 39.7485C32.8569 39.7485 33.2764 40.1662 33.2764 40.681V46.3654C33.2764 46.8801 32.8569 47.2978 32.34 47.2978Z" fill="#635BFF"/>
<path d="M47.638 47.2978C47.1211 47.2978 46.7015 46.8801 46.7015 46.3654V40.681C46.7015 40.1662 47.1211 39.7485 47.638 39.7485C48.1549 39.7485 48.5744 40.1662 48.5744 40.681V46.3654C48.5744 46.8801 48.1549 47.2978 47.638 47.2978Z" fill="#635BFF"/>
<path d="M50.4506 27.8941C50.3644 27.8941 50.2782 27.8829 50.1958 27.8605C43.4383 25.9582 36.5836 25.9582 29.826 27.8605C29.545 27.9388 29.2416 27.8829 29.0056 27.7076C28.7734 27.5323 28.6348 27.2563 28.6348 26.9653V26.3275C28.6348 20.0799 33.7366 15 40.0107 15C46.2848 15 51.3867 20.0801 51.3867 26.3275V26.9653C51.3867 27.2563 51.2481 27.5323 51.0158 27.7076C50.851 27.8307 50.6525 27.8978 50.4502 27.8978L50.4506 27.8941ZM40.0105 24.567C43.1796 24.567 46.3448 24.9586 49.4951 25.7419C49.1917 20.7923 45.0525 16.861 40.0105 16.861C34.9649 16.861 30.8257 20.796 30.526 25.7419C33.6763 24.9586 36.8453 24.567 40.0105 24.567Z" fill="#635BFF"/>
<path d="M34.512 29.8821C33.2046 29.8821 31.8973 29.5091 30.7586 28.8004L29.0729 27.7523C28.6347 27.48 28.4998 26.9056 28.777 26.4654C29.0505 26.029 29.6273 25.8947 30.0694 26.1708L31.755 27.2189C32.8039 27.8717 34.0363 28.1365 35.2237 27.9686C38.4714 27.5024 41.6928 27.4949 44.7944 27.95C46.0006 28.1253 47.2442 27.8642 48.2968 27.2077L49.96 26.1709C50.3982 25.8986 50.9751 26.0291 51.2523 26.4655C51.5258 26.9019 51.3947 27.4763 50.9564 27.7524L49.2932 28.7893C47.8623 29.6807 46.1692 30.0351 44.5247 29.7964C41.6029 29.3674 38.5651 29.3749 35.4971 29.815C35.175 29.8598 34.8491 29.8859 34.5232 29.8859L34.512 29.8821Z" fill="#635BFF"/>
<path d="M55.1034 65C54.9198 65 54.74 64.9478 54.5827 64.8433C47.076 59.8341 46.2444 51.6061 46.2106 51.2585C46.1807 50.934 46.3267 50.6133 46.589 50.423C46.8549 50.2291 47.2033 50.188 47.5067 50.3186C49.2748 51.0608 50.9304 50.7886 52.4325 49.5092C53.605 48.5095 54.2567 47.2414 54.2643 47.2302C54.4216 46.9132 54.7475 46.7155 55.1033 46.7155C55.4592 46.7155 55.7813 46.9132 55.9424 47.2302C56.0473 47.4391 58.4709 52.0941 62.7 50.3186C63.0034 50.1918 63.3518 50.2328 63.6177 50.4231C63.8837 50.617 64.026 50.9341 63.9961 51.2586C63.9661 51.6055 63.1308 59.8337 55.624 64.8434C55.4667 64.9478 55.2832 65 55.1034 65ZM48.3346 52.497C48.8815 54.8394 50.5146 59.61 55.1034 62.9337C59.6921 59.6103 61.3253 54.8434 61.8721 52.497C58.8043 53.0342 56.4443 51.1767 55.1034 49.3975C53.7624 51.1767 51.4024 53.0342 48.3346 52.497Z" fill="#635BFF"/>
</svg>
