<svg width="80" height="80" viewBox="0 0 80 80" fill="none" xmlns="http://www.w3.org/2000/svg">
<g clip-path="url(#clip0_1_1576)">
<path opacity="0.2" d="M29.8438 55.625C32.8641 55.625 35.3125 53.1766 35.3125 50.1562C35.3125 47.1359 32.8641 44.6875 29.8438 44.6875C26.8234 44.6875 24.375 47.1359 24.375 50.1562C24.375 53.1766 26.8234 55.625 29.8438 55.625Z" fill="#635BFF"/>
<path opacity="0.2" d="M50.1562 55.625C53.1766 55.625 55.625 53.1766 55.625 50.1562C55.625 47.1359 53.1766 44.6875 50.1562 44.6875C47.1359 44.6875 44.6875 47.1359 44.6875 50.1562C44.6875 53.1766 47.1359 55.625 50.1562 55.625Z" fill="#635BFF"/>
<path opacity="0.2" d="M22.8125 38.4375L32.5566 25.0176C32.6981 24.8238 32.8823 24.6652 33.095 24.5541C33.3076 24.443 33.543 24.3823 33.7829 24.3769C34.0228 24.3714 34.2607 24.4212 34.4782 24.5225C34.6957 24.6238 34.8869 24.7738 35.0371 24.9609L37.5645 27.8906C37.8573 28.2549 38.2281 28.5488 38.6496 28.7508C39.0712 28.9528 39.5326 29.0576 40 29.0576C40.4674 29.0576 40.9288 28.9528 41.3504 28.7508C41.7719 28.5488 42.1427 28.2549 42.4355 27.8906L44.9629 24.9609C45.1131 24.7738 45.3043 24.6238 45.5218 24.5225C45.7393 24.4212 45.9772 24.3714 46.2171 24.3769C46.457 24.3823 46.6924 24.443 46.905 24.5541C47.1177 24.6652 47.3019 24.8238 47.4434 25.0176L57.1875 38.4375H22.8125Z" fill="#635BFF"/>
<path d="M16.5625 38.4375H63.4375" stroke="#635BFF" stroke-width="2" stroke-linecap="round" stroke-linejoin="round"/>
<path d="M29.8438 55.625C32.8641 55.625 35.3125 53.1766 35.3125 50.1562C35.3125 47.1359 32.8641 44.6875 29.8438 44.6875C26.8234 44.6875 24.375 47.1359 24.375 50.1562C24.375 53.1766 26.8234 55.625 29.8438 55.625Z" stroke="#635BFF" stroke-width="2" stroke-linecap="round" stroke-linejoin="round"/>
<path d="M50.1562 55.625C53.1766 55.625 55.625 53.1766 55.625 50.1562C55.625 47.1359 53.1766 44.6875 50.1562 44.6875C47.1359 44.6875 44.6875 47.1359 44.6875 50.1562C44.6875 53.1766 47.1359 55.625 50.1562 55.625Z" stroke="#635BFF" stroke-width="2" stroke-linecap="round" stroke-linejoin="round"/>
<path d="M35.2578 50.9375H44.7422" stroke="#635BFF" stroke-width="2" stroke-linecap="round" stroke-linejoin="round"/>
<path d="M22.8125 38.4375L32.5566 25.0176C32.6981 24.8238 32.8823 24.6652 33.095 24.5541C33.3076 24.443 33.543 24.3823 33.7829 24.3769C34.0228 24.3714 34.2607 24.4212 34.4782 24.5225C34.6957 24.6238 34.8869 24.7738 35.0371 24.9609L37.5645 27.8906C37.8573 28.2549 38.2281 28.5488 38.6496 28.7508C39.0712 28.9528 39.5326 29.0576 40 29.0576C40.4674 29.0576 40.9288 28.9528 41.3504 28.7508C41.7719 28.5488 42.1427 28.2549 42.4355 27.8906L44.9629 24.9609C45.1131 24.7738 45.3043 24.6238 45.5218 24.5225C45.7393 24.4212 45.9772 24.3714 46.2171 24.3769C46.457 24.3823 46.6924 24.443 46.905 24.5541C47.1177 24.6652 47.3019 24.8238 47.4434 25.0176L57.1875 38.4375" stroke="#635BFF" stroke-width="2" stroke-linecap="round" stroke-linejoin="round"/>
</g>
<defs>
<clipPath id="clip0_1_1576">
<rect width="50" height="50" fill="white" transform="translate(15 15)"/>
</clipPath>
</defs>
</svg>
