<svg width="80" height="80" viewBox="0 0 80 80" fill="none" xmlns="http://www.w3.org/2000/svg">
<g clip-path="url(#clip0_1_1542)">
<path opacity="0.2" d="M25.291 47.8125L32.6445 55.168C32.7896 55.3132 32.962 55.4285 33.1517 55.5071C33.3413 55.5858 33.5447 55.6262 33.75 55.6262C33.9553 55.6262 34.1587 55.5858 34.3483 55.5071C34.538 55.4285 34.7104 55.3132 34.8555 55.168L58.293 31.7305C58.4382 31.5854 58.5535 31.413 58.6321 31.2233C58.7108 31.0337 58.7512 30.8303 58.7512 30.625C58.7512 30.4197 58.7108 30.2163 58.6321 30.0267C58.5535 29.837 58.4382 29.6646 58.293 29.5195L50.9375 22.166L25.291 47.8125Z" fill="#635BFF"/>
<path d="M63.4375 43.125V52.5" stroke="#635BFF" stroke-width="2" stroke-linecap="round" stroke-linejoin="round"/>
<path d="M50.9375 22.166L25.291 47.8125" stroke="#635BFF" stroke-width="2" stroke-linecap="round" stroke-linejoin="round"/>
<path d="M16.6778 47.1465C16.6235 47.2011 16.5866 47.2706 16.5716 47.3461C16.5567 47.4217 16.5644 47.5 16.5939 47.5711C16.6233 47.6423 16.6731 47.7032 16.737 47.7462C16.801 47.7891 16.8762 47.8122 16.9532 47.8125H25.2911L32.6446 55.168C32.7897 55.3133 32.962 55.4285 33.1517 55.5071C33.3414 55.5858 33.5447 55.6262 33.7501 55.6262C33.9554 55.6262 34.1587 55.5858 34.3484 55.5071C34.5381 55.4285 34.7104 55.3133 34.8555 55.168L58.293 31.7305C58.4383 31.5854 58.5536 31.413 58.6322 31.2234C58.7108 31.0337 58.7513 30.8303 58.7513 30.625C58.7513 30.4197 58.7108 30.2163 58.6322 30.0267C58.5536 29.837 58.4383 29.6647 58.293 29.5195L47.3555 18.582C47.2104 18.4368 47.0381 18.3215 46.8484 18.2429C46.6587 18.1643 46.4554 18.1238 46.2501 18.1238C46.0447 18.1238 45.8414 18.1643 45.6517 18.2429C45.462 18.3215 45.2897 18.4368 45.1446 18.582L16.6778 47.1465Z" stroke="#635BFF" stroke-width="2" stroke-linecap="round" stroke-linejoin="round"/>
<path d="M47.3555 42.668L52.043 47.3555C52.3358 47.6479 52.7326 47.8123 53.1465 47.8125H63.4375" stroke="#635BFF" stroke-width="2" stroke-linecap="round" stroke-linejoin="round"/>
</g>
<defs>
<clipPath id="clip0_1_1542">
<rect width="50" height="50" fill="white" transform="translate(15 15)"/>
</clipPath>
</defs>
</svg>
