<svg width="150" height="150" viewBox="0 0 150 150" fill="none" xmlns="http://www.w3.org/2000/svg">
<path d="M76.7069 110.999C70.5248 107.881 64.9092 103.808 60.0569 98.9753C48.2828 87.2493 41 71.0504 41 53.1578C41 51.9509 41.0334 50.7519 41.0984 49.5617M59.5455 60.1649C64.862 58.0891 70.6507 56.9499 76.7059 56.9499C89.6948 56.9499 101.454 62.1937 109.968 70.6713C109.978 70.682 109.989 70.6928 109.999 70.7026M92.7933 41.0116C93.835 44.8859 94.3897 48.9582 94.3897 53.1588C94.3897 66.0945 89.1243 77.8059 80.6119 86.2844C79.3765 87.5148 78.0722 88.6775 76.7059 89.7649M76.7069 89.7649C75.3407 88.6765 74.0373 87.5148 72.8009 86.2844C65.8555 79.3674 61.0711 70.2971 59.5455 60.166M41.0984 49.5626C46.8998 45.7901 53.2472 42.9835 59.873 41.2153C70.4913 38.3813 81.8317 38.2158 92.7923 41.0116M110 70.7026C106.946 81.543 101.13 91.2343 93.3569 98.9762C88.5046 103.809 82.8891 107.881 76.7069 111" stroke="#635BFF" stroke-width="6" stroke-miterlimit="2.6131" stroke-linecap="round" stroke-linejoin="round"/>
</svg>
