<svg width="150" height="150" viewBox="0 0 150 150" fill="none" xmlns="http://www.w3.org/2000/svg">
<path opacity="0.2" d="M87.5 50C87.5 52.4723 86.7669 54.889 85.3934 56.9446C84.0199 59.0002 82.0676 60.6024 79.7836 61.5485C77.4995 62.4946 74.9861 62.7421 72.5614 62.2598C70.1366 61.7775 67.9093 60.587 66.1612 58.8388C64.413 57.0907 63.2225 54.8634 62.7402 52.4386C62.2579 50.0139 62.5054 47.5005 63.4515 45.2165C64.3976 42.9324 65.9998 40.9801 68.0554 39.6066C70.111 38.2331 72.5277 37.5 75 37.5C78.3152 37.5 81.4946 38.817 83.8388 41.1612C86.183 43.5054 87.5 46.6848 87.5 50Z" fill="#635BFF"/>
<path d="M71.875 65.3125V93.75C71.875 94.5788 72.2042 95.3736 72.7903 95.9597C73.3763 96.5457 74.1712 96.875 75 96.875C75.8288 96.875 76.6237 96.5457 77.2097 95.9597C77.7958 95.3736 78.125 94.5788 78.125 93.75V65.3125C81.9189 64.5381 85.2901 62.3825 87.585 59.2638C89.8799 56.145 90.9351 52.2852 90.5459 48.4327C90.1567 44.5802 88.3509 41.0094 85.4786 38.4127C82.6063 35.8159 78.8721 34.3782 75 34.3782C71.1279 34.3782 67.3937 35.8159 64.5214 38.4127C61.6491 41.0094 59.8433 44.5802 59.4541 48.4327C59.0649 52.2852 60.1201 56.145 62.415 59.2638C64.7099 62.3825 68.0811 64.5381 71.875 65.3125ZM75 40.625C76.8542 40.625 78.6668 41.1748 80.2085 42.205C81.7502 43.2351 82.9518 44.6993 83.6614 46.4123C84.3709 48.1254 84.5566 50.0104 84.1949 51.829C83.8331 53.6475 82.9402 55.318 81.6291 56.6291C80.318 57.9402 78.6475 58.8331 76.829 59.1948C75.0104 59.5566 73.1254 59.3709 71.4123 58.6614C69.6993 57.9518 68.2351 56.7502 67.205 55.2085C66.1748 53.6667 65.625 51.8542 65.625 50C65.625 47.5136 66.6127 45.129 68.3709 43.3709C70.129 41.6127 72.5136 40.625 75 40.625ZM118.75 93.75C118.75 105.93 96.207 112.5 75 112.5C53.793 112.5 31.25 105.93 31.25 93.75C31.25 90.7265 32.7383 86.2773 39.8438 82.2617C44.6328 79.5508 51.2187 77.4687 58.8945 76.2383C59.3006 76.1741 59.7152 76.1906 60.1149 76.2868C60.5145 76.3829 60.8913 76.5568 61.2238 76.7986C61.5562 77.0403 61.8378 77.3452 62.0524 77.6958C62.267 78.0463 62.4105 78.4358 62.4746 78.8418C62.5387 79.2478 62.5223 79.6625 62.4261 80.0621C62.33 80.4618 62.1561 80.8386 61.9143 81.171C61.6726 81.5035 61.3677 81.785 61.0171 81.9997C60.6665 82.2143 60.2771 82.3577 59.8711 82.4219C53.0195 83.5234 46.9805 85.4023 42.9102 87.7148C39.4727 89.6484 37.5 91.8515 37.5 93.75C37.5 98.9687 51.7656 106.25 75 106.25C98.2344 106.25 112.5 98.9687 112.5 93.75C112.5 91.8515 110.527 89.6484 107.09 87.6992C103.004 85.3867 96.9805 83.5078 90.1289 82.4062C89.7143 82.3521 89.3147 82.2152 88.9539 82.0038C88.5931 81.7925 88.2784 81.5108 88.0284 81.1756C87.7785 80.8403 87.5983 80.4583 87.4987 80.0522C87.399 79.6461 87.3819 79.2241 87.4483 78.8112C87.5147 78.3984 87.6634 78.0031 87.8853 77.6487C88.1073 77.2943 88.3982 76.9881 88.7406 76.7481C89.0831 76.5082 89.4703 76.3394 89.8792 76.2519C90.2881 76.1643 90.7104 76.1597 91.1211 76.2383C98.7969 77.4687 105.383 79.5508 110.172 82.2617C117.262 86.2773 118.75 90.7265 118.75 93.75Z" fill="#635BFF"/>
</svg>
