<svg width="150" height="150" viewBox="0 0 150 150" fill="none" xmlns="http://www.w3.org/2000/svg">
<path opacity="0.2" d="M115.625 75C115.625 79.8867 108.664 83.5742 106.766 88.1602C104.938 92.582 107.32 100.133 103.727 103.727C100.133 107.32 92.582 104.938 88.1602 106.766C83.5938 108.664 79.8828 115.625 75 115.625C70.1172 115.625 66.4062 108.664 61.8398 106.766C57.418 104.938 49.8672 107.32 46.2734 103.727C42.6797 100.133 45.0625 92.582 43.2344 88.1602C41.3359 83.5938 34.375 79.8828 34.375 75C34.375 70.1172 41.3359 66.4062 43.2344 61.8398C45.0625 57.4219 42.6797 49.8672 46.2734 46.2734C49.8672 42.6797 57.4219 45.0625 61.8398 43.2344C66.4258 41.3359 70.1172 34.375 75 34.375C79.8828 34.375 83.5938 41.3359 88.1602 43.2344C92.582 45.0625 100.133 42.6797 103.727 46.2734C107.32 49.8672 104.938 57.418 106.766 61.8398C108.664 66.4258 115.625 70.1172 115.625 75Z" fill="#635BFF"/>
<path d="M113.227 65.1641C111.754 63.625 110.23 62.0391 109.656 60.6445C109.125 59.3672 109.094 57.25 109.062 55.1992C109.004 51.3867 108.941 47.0664 105.938 44.0625C102.934 41.0586 98.6133 40.9961 94.8008 40.9375C92.75 40.9062 90.6328 40.875 89.3555 40.3438C87.9648 39.7695 86.375 38.2461 84.8359 36.7734C82.1406 34.1836 79.0781 31.25 75 31.25C70.9219 31.25 67.8633 34.1836 65.1641 36.7734C63.625 38.2461 62.0391 39.7695 60.6445 40.3438C59.375 40.875 57.25 40.9062 55.1992 40.9375C51.3867 40.9961 47.0664 41.0586 44.0625 44.0625C41.0586 47.0664 41.0156 51.3867 40.9375 55.1992C40.9062 57.25 40.875 59.3672 40.3438 60.6445C39.7695 62.0352 38.2461 63.625 36.7734 65.1641C34.1836 67.8594 31.25 70.9219 31.25 75C31.25 79.0781 34.1836 82.1367 36.7734 84.8359C38.2461 86.375 39.7695 87.9609 40.3438 89.3555C40.875 90.6328 40.9062 92.75 40.9375 94.8008C40.9961 98.6133 41.0586 102.934 44.0625 105.938C47.0664 108.941 51.3867 109.004 55.1992 109.062C57.25 109.094 59.3672 109.125 60.6445 109.656C62.0352 110.23 63.625 111.754 65.1641 113.227C67.8594 115.816 70.9219 118.75 75 118.75C79.0781 118.75 82.1367 115.816 84.8359 113.227C86.375 111.754 87.9609 110.23 89.3555 109.656C90.6328 109.125 92.75 109.094 94.8008 109.062C98.6133 109.004 102.934 108.941 105.938 105.938C108.941 102.934 109.004 98.6133 109.062 94.8008C109.094 92.75 109.125 90.6328 109.656 89.3555C110.23 87.9648 111.754 86.375 113.227 84.8359C115.816 82.1406 118.75 79.0781 118.75 75C118.75 70.9219 115.816 67.8633 113.227 65.1641ZM108.715 80.5117C106.844 82.4648 104.906 84.4844 103.879 86.9648C102.895 89.3477 102.852 92.0703 102.812 94.707C102.773 97.4414 102.73 100.305 101.516 101.516C100.301 102.727 97.457 102.773 94.707 102.812C92.0703 102.852 89.3477 102.895 86.9648 103.879C84.4844 104.906 82.4648 106.844 80.5117 108.715C78.5586 110.586 76.5625 112.5 75 112.5C73.4375 112.5 71.4258 110.578 69.4883 108.715C67.5508 106.852 65.5156 104.906 63.0352 103.879C60.6523 102.895 57.9297 102.852 55.293 102.812C52.5586 102.773 49.6953 102.73 48.4844 101.516C47.2734 100.301 47.2266 97.457 47.1875 94.707C47.1484 92.0703 47.1055 89.3477 46.1211 86.9648C45.0938 84.4844 43.1562 82.4648 41.2852 80.5117C39.4141 78.5586 37.5 76.5625 37.5 75C37.5 73.4375 39.4219 71.4258 41.2852 69.4883C43.1484 67.5508 45.0938 65.5156 46.1211 63.0352C47.1055 60.6523 47.1484 57.9297 47.1875 55.293C47.2266 52.5586 47.2695 49.6953 48.4844 48.4844C49.6992 47.2734 52.543 47.2266 55.293 47.1875C57.9297 47.1484 60.6523 47.1055 63.0352 46.1211C65.5156 45.0938 67.5352 43.1562 69.4883 41.2852C71.4414 39.4141 73.4375 37.5 75 37.5C76.5625 37.5 78.5742 39.4219 80.5117 41.2852C82.4492 43.1484 84.4844 45.0938 86.9648 46.1211C89.3477 47.1055 92.0703 47.1484 94.707 47.1875C97.4414 47.2266 100.305 47.2695 101.516 48.4844C102.727 49.6992 102.773 52.543 102.812 55.293C102.852 57.9297 102.895 60.6523 103.879 63.0352C104.906 65.5156 106.844 67.5352 108.715 69.4883C110.586 71.4414 112.5 73.4375 112.5 75C112.5 76.5625 110.578 78.5742 108.715 80.5117ZM92.8359 63.4141C93.1265 63.7043 93.357 64.0489 93.5143 64.4283C93.6715 64.8077 93.7525 65.2143 93.7525 65.625C93.7525 66.0357 93.6715 66.4423 93.5143 66.8217C93.357 67.2011 93.1265 67.5457 92.8359 67.8359L70.9609 89.7109C70.6707 90.0015 70.3261 90.232 69.9467 90.3893C69.5673 90.5465 69.1607 90.6275 68.75 90.6275C68.3393 90.6275 67.9327 90.5465 67.5533 90.3893C67.1739 90.232 66.8293 90.0015 66.5391 89.7109L57.1641 80.3359C56.5777 79.7496 56.2483 78.9543 56.2483 78.125C56.2483 77.2957 56.5777 76.5004 57.1641 75.9141C57.7504 75.3277 58.5457 74.9983 59.375 74.9983C60.2043 74.9983 60.9996 75.3277 61.5859 75.9141L68.75 83.082L88.4141 63.4141C88.7043 63.1235 89.0489 62.893 89.4283 62.7358C89.8077 62.5785 90.2143 62.4975 90.625 62.4975C91.0357 62.4975 91.4423 62.5785 91.8217 62.7358C92.2011 62.893 92.5457 63.1235 92.8359 63.4141Z" fill="#635BFF"/>
</svg>
