<svg width="525" height="498" viewBox="0 0 525 498" fill="none" xmlns="http://www.w3.org/2000/svg">
<rect width="525" height="498" rx="32" fill="#635BFF" fill-opacity="0.2"/>
<g filter="url(#filter0_i_16_74)">
<path fill-rule="evenodd" clip-rule="evenodd" d="M271.842 362.582L271.573 362.712L271.533 362.732L271.493 362.752L271.364 362.812C269.732 363.561 268.02 363.94 266.318 364H266.269H266.04H265.91H265.781H265.552H265.502C263.801 363.95 262.089 363.561 260.457 362.812L260.327 362.752L260.288 362.732L260.248 362.712L259.979 362.582C250.594 357.819 241.707 352.367 233.367 346.296C224.868 340.115 216.927 333.314 209.622 325.985C191.539 307.841 176.94 286.093 166.928 261.858C157.304 238.551 152 213.078 152 186.427C152 185.797 152.04 183.97 152.119 181.014C152.179 178.818 152.249 177.001 152.328 175.543C152.557 170.979 155.075 167.064 158.708 164.878C167.306 159.276 176.313 154.373 185.638 150.189C195.261 145.875 205.094 142.37 215.036 139.704C231.128 135.38 247.877 133.104 264.846 133.004C281.047 132.904 297.398 134.821 313.491 138.865C318.417 139.704 322.657 143.339 324.03 148.502C325.622 154.473 326.856 160.744 327.712 167.284C328.558 173.775 328.996 180.175 328.996 186.436C328.996 190.371 328.837 194.276 328.528 198.14C343.705 205.39 357.399 215.125 369.063 226.828C369.789 227.567 370.426 228.366 370.944 229.205C372.874 232.26 373.561 236.104 372.506 239.859C367.948 256.175 361.3 271.694 352.881 286.093C344.292 300.792 333.962 314.202 322.209 325.995C314.904 333.325 306.962 340.125 298.463 346.306C290.124 352.357 281.227 357.809 271.842 362.582ZM323.741 225.351C322.139 231.162 320.188 236.834 317.919 242.336C310.485 260.33 299.668 276.466 286.272 289.907C284.799 291.385 282.819 293.242 280.331 295.479C278.48 297.137 276.479 298.834 274.33 300.561L274.32 300.572L274.31 300.582C273.554 301.211 272.737 301.75 271.882 302.179L271.613 302.32L271.593 302.329L271.324 302.449C269.772 303.158 268.12 303.538 266.458 303.608H266.408L266.129 303.618H266.099H265.91H265.721H265.691L265.413 303.608H265.363C263.711 303.538 262.059 303.158 260.496 302.449L260.228 302.329L260.208 302.32L259.939 302.179C259.083 301.74 258.257 301.201 257.501 300.572L257.491 300.561C255.341 298.834 253.341 297.137 251.49 295.479C249.002 293.242 247.012 291.385 245.549 289.907C234.691 279.013 225.515 266.341 218.449 252.322C211.583 238.691 206.776 223.862 204.447 208.225C203.511 201.824 207.313 195.823 213.185 193.796C221.355 190.62 229.914 188.154 238.791 186.476C247.688 184.799 256.754 183.92 265.9 183.92C278.529 183.92 290.81 185.548 302.544 188.614C302.554 187.885 302.564 187.146 302.564 186.407C302.564 180.845 302.235 175.593 301.588 170.67C301.25 168.084 300.822 165.487 300.294 162.891C288.581 160.465 276.728 159.306 264.935 159.386C250.435 159.475 235.945 161.473 221.833 165.268C213.026 167.634 204.507 170.66 196.356 174.304C190.216 177.05 184.225 180.176 178.413 183.661V186.407C178.413 209.633 182.99 231.711 191.28 251.792C199.879 272.612 212.538 291.416 228.292 307.223C234.721 313.673 241.588 319.564 248.843 324.837C254.326 328.831 260.029 332.486 265.91 335.781C271.792 332.486 277.494 328.831 282.978 324.837C290.233 319.555 297.1 313.663 303.529 307.223C313.879 296.838 322.856 285.234 330.18 272.702C336.112 262.557 341.028 251.703 344.8 240.279C338.331 234.578 331.275 229.555 323.741 225.351ZM232.671 215.116C234.84 223.993 237.985 232.47 241.996 240.429C247.718 251.792 255.252 262.167 264.238 271.174C264.836 271.773 265.393 272.322 265.91 272.842C266.428 272.332 266.995 271.773 267.582 271.174C278.649 260.07 287.536 246.88 293.557 232.301C295.836 226.779 297.717 221.037 299.16 215.116C288.641 212.08 277.484 210.452 265.91 210.452C258.188 210.452 250.753 211.151 243.658 212.489C239.936 213.188 236.273 214.067 232.671 215.116Z" fill="#635BFF"/>
</g>
<defs>
<filter id="filter0_i_16_74" x="152" y="133" width="221" height="235" filterUnits="userSpaceOnUse" color-interpolation-filters="sRGB">
<feFlood flood-opacity="0" result="BackgroundImageFix"/>
<feBlend mode="normal" in="SourceGraphic" in2="BackgroundImageFix" result="shape"/>
<feColorMatrix in="SourceAlpha" type="matrix" values="0 0 0 0 0 0 0 0 0 0 0 0 0 0 0 0 0 0 127 0" result="hardAlpha"/>
<feOffset dy="4"/>
<feGaussianBlur stdDeviation="2"/>
<feComposite in2="hardAlpha" operator="arithmetic" k2="-1" k3="1"/>
<feColorMatrix type="matrix" values="0 0 0 0 0 0 0 0 0 0 0 0 0 0 0 0 0 0 0.25 0"/>
<feBlend mode="normal" in2="shape" result="effect1_innerShadow_16_74"/>
</filter>
</defs>
</svg>
