<svg width="1240" height="383" viewBox="0 0 1240 383" fill="none" xmlns="http://www.w3.org/2000/svg">
<path fill-rule="evenodd" clip-rule="evenodd" d="M996.687 145.565V0H1054.73V376.016H996.687V337.346C974.834 367.788 943.469 383 902.628 383C865.724 383 834.189 369.389 808.023 342.166C781.857 314.943 768.783 281.471 768.783 241.71C768.783 201.968 781.857 168.476 808.023 141.253C834.189 114.031 865.705 100.438 902.628 100.438C943.488 100.438 974.834 115.48 996.687 145.565ZM851.03 303.479C867.156 319.594 887.407 327.651 911.764 327.651C936.122 327.651 956.373 319.594 972.499 303.479C988.624 287.006 996.687 266.41 996.687 241.71C996.687 217.01 988.624 196.584 972.499 180.469C956.373 163.996 936.122 155.749 911.764 155.749C887.388 155.749 867.156 163.996 851.03 180.469C834.905 196.584 826.842 216.991 826.842 241.71C826.842 266.052 834.905 286.648 851.03 303.479Z" fill="url(#paint0_linear_23_245)"/>
<path fill-rule="evenodd" clip-rule="evenodd" d="M227.904 145.565V0H285.944V376.016H227.904V337.346C206.051 367.788 174.686 383 133.845 383C96.9411 383 65.4059 369.389 39.2397 342.166C13.0736 314.943 0 281.471 0 241.71C0 201.968 13.0736 168.476 39.2397 141.253C65.4059 114.031 96.9223 100.438 133.845 100.438C174.705 100.438 206.051 115.48 227.904 145.565ZM82.2474 303.479C98.3728 319.594 118.624 327.651 142.981 327.651C167.339 327.651 187.59 319.594 203.716 303.479C219.841 287.006 227.904 266.41 227.904 241.71C227.904 217.01 219.841 196.584 203.716 180.469C187.59 163.996 167.339 155.749 142.981 155.749C118.605 155.749 98.3728 163.996 82.2474 180.469C66.1219 196.584 58.0593 216.991 58.0593 241.71C58.0593 266.052 66.1219 286.648 82.2474 303.479Z" fill="url(#paint1_linear_23_245)"/>
<path fill-rule="evenodd" clip-rule="evenodd" d="M1157.23 107.423V152.55C1171.92 119.247 1199.52 102.585 1240 102.585V165.201H1232.9C1213.93 165.257 1196.94 170.698 1181.94 181.542C1165.46 193.365 1157.21 213.058 1157.21 240.638V375.998H1099.15V107.423H1157.23Z" fill="url(#paint2_linear_23_245)"/>
<path fill-rule="evenodd" clip-rule="evenodd" d="M636.05 100.438C667.227 100.438 692.225 110.378 711.026 130.259C729.845 150.139 739.245 177.08 739.245 211.099V375.997H681.205V216.991C681.205 196.942 675.836 181.542 665.079 170.792C654.323 160.042 639.629 154.677 620.998 154.677C599.862 154.677 583.19 161.21 571.002 174.275C558.813 187.34 552.729 206.599 552.729 232.015V375.978H494.688V107.423H552.729V141.8C570.663 114.219 598.43 100.438 636.05 100.438Z" fill="url(#paint3_linear_23_245)"/>
<path fill-rule="evenodd" clip-rule="evenodd" d="M411.481 107.422V78.2795C411.481 65.6283 421.841 55.2744 434.501 55.2744H474.908V0H433.615C389.515 0 353.44 36.0523 353.44 80.1244V107.422H312.599V163.28H353.44V375.997H411.499V163.28H474.927V107.422H411.481Z" fill="url(#paint4_linear_23_245)"/>
<defs>
<linearGradient id="paint0_linear_23_245" x1="620" y1="383" x2="620" y2="0" gradientUnits="userSpaceOnUse">
<stop stop-color="#635BFF" stop-opacity="0.5"/>
<stop offset="1" stop-color="#635BFF" stop-opacity="0"/>
</linearGradient>
<linearGradient id="paint1_linear_23_245" x1="620" y1="383" x2="620" y2="0" gradientUnits="userSpaceOnUse">
<stop stop-color="#635BFF" stop-opacity="0.5"/>
<stop offset="1" stop-color="#635BFF" stop-opacity="0"/>
</linearGradient>
<linearGradient id="paint2_linear_23_245" x1="620" y1="383" x2="620" y2="0" gradientUnits="userSpaceOnUse">
<stop stop-color="#635BFF" stop-opacity="0.5"/>
<stop offset="1" stop-color="#635BFF" stop-opacity="0"/>
</linearGradient>
<linearGradient id="paint3_linear_23_245" x1="620" y1="383" x2="620" y2="0" gradientUnits="userSpaceOnUse">
<stop stop-color="#635BFF" stop-opacity="0.5"/>
<stop offset="1" stop-color="#635BFF" stop-opacity="0"/>
</linearGradient>
<linearGradient id="paint4_linear_23_245" x1="620" y1="383" x2="620" y2="0" gradientUnits="userSpaceOnUse">
<stop stop-color="#635BFF" stop-opacity="0.5"/>
<stop offset="1" stop-color="#635BFF" stop-opacity="0"/>
</linearGradient>
</defs>
</svg>
