<svg width="593" height="481" viewBox="0 0 593 481" fill="none" xmlns="http://www.w3.org/2000/svg">
<rect width="593" height="481" rx="32" fill="#635BFF" fill-opacity="0.1"/>
<path fill-rule="evenodd" clip-rule="evenodd" d="M418.538 231.974V203.389H429.928V277.228H418.538V269.635C414.25 275.613 408.094 278.6 400.079 278.6C392.837 278.6 386.648 275.927 381.513 270.581C376.378 265.235 373.812 258.662 373.812 250.854C373.812 243.05 376.378 236.473 381.513 231.127C386.648 225.781 392.833 223.112 400.079 223.112C408.098 223.112 414.25 226.066 418.538 231.974ZM389.953 262.984C393.118 266.149 397.092 267.731 401.872 267.731C406.652 267.731 410.627 266.149 413.791 262.984C416.956 259.749 418.538 255.705 418.538 250.854C418.538 246.004 416.956 241.993 413.791 238.828C410.627 235.593 406.652 233.974 401.872 233.974C397.088 233.974 393.118 235.593 389.953 238.828C386.788 241.993 385.206 246 385.206 250.854C385.206 255.634 386.788 259.679 389.953 262.984Z" fill="#635BFF"/>
<path fill-rule="evenodd" clip-rule="evenodd" d="M267.665 231.974V203.389H279.055V277.228H267.665V269.635C263.376 275.613 257.221 278.6 249.206 278.6C241.963 278.6 235.774 275.927 230.639 270.581C225.504 265.235 222.939 258.662 222.939 250.854C222.939 243.05 225.504 236.473 230.639 231.127C235.774 225.781 241.96 223.112 249.206 223.112C257.224 223.112 263.376 226.066 267.665 231.974ZM239.08 262.984C242.244 266.149 246.218 267.731 250.999 267.731C255.779 267.731 259.753 266.149 262.918 262.984C266.082 259.749 267.665 255.705 267.665 250.854C267.665 246.004 266.082 241.993 262.918 238.828C259.753 235.593 255.779 233.974 250.999 233.974C246.215 233.974 242.244 235.593 239.08 238.828C235.915 241.993 234.333 246 234.333 250.854C234.333 255.634 235.915 259.679 239.08 262.984Z" fill="#635BFF"/>
<path fill-rule="evenodd" clip-rule="evenodd" d="M450.044 224.484V233.346C452.927 226.806 458.343 223.534 466.288 223.534V235.83H464.898H464.895C461.172 235.841 457.837 236.91 454.894 239.039C451.659 241.361 450.04 245.228 450.04 250.644V277.225H438.646V224.484H450.044Z" fill="#635BFF"/>
<path fill-rule="evenodd" clip-rule="evenodd" d="M347.763 223.113C353.882 223.113 358.788 225.065 362.477 228.969C366.17 232.873 368.015 238.163 368.015 244.844V277.226H356.625V246.001C356.625 242.064 355.571 239.039 353.46 236.928C351.349 234.817 348.466 233.764 344.809 233.764C340.661 233.764 337.389 235.047 334.997 237.612C332.606 240.178 331.411 243.96 331.411 248.951V277.222H320.021V224.484H331.411V231.235C334.931 225.819 340.38 223.113 347.763 223.113Z" fill="#635BFF"/>
<path fill-rule="evenodd" clip-rule="evenodd" d="M303.692 224.484V218.761C303.692 216.276 305.725 214.243 308.209 214.243H316.139V203.389H308.035C299.381 203.389 292.301 210.468 292.301 219.123V224.484H288.294H284.286V235.453H292.301V277.225H303.695V235.453H316.143V224.484H303.692Z" fill="#635BFF"/>
<path fill-rule="evenodd" clip-rule="evenodd" d="M167.565 278.53L167.476 278.575L167.465 278.582L167.454 278.59L167.41 278.608C166.87 278.856 166.304 278.982 165.742 279H165.728H165.65H165.606H165.561H165.484H165.469C164.907 278.982 164.341 278.856 163.802 278.608L163.757 278.59L163.746 278.582L163.735 278.575L163.646 278.53C160.548 276.963 157.613 275.17 154.862 273.174C152.056 271.14 149.435 268.904 147.021 266.493C141.054 260.526 136.233 253.369 132.928 245.394C129.752 237.727 128 229.346 128 220.58C128 220.373 128.015 219.771 128.041 218.798C128.059 218.078 128.085 217.475 128.111 216.998C128.189 215.497 129.017 214.211 130.218 213.49C133.057 211.645 136.03 210.033 139.106 208.658C142.281 207.242 145.527 206.088 148.81 205.208C154.123 203.785 159.65 203.038 165.254 203.001C170.604 202.968 175.998 203.6 181.31 204.931C182.937 205.208 184.335 206.402 184.789 208.103C185.314 210.066 185.725 212.129 186.006 214.281C186.287 216.418 186.431 218.521 186.431 220.584C186.431 221.878 186.379 223.164 186.275 224.433C191.285 226.817 195.806 230.022 199.655 233.871C199.895 234.111 200.102 234.374 200.276 234.655C200.912 235.66 201.137 236.925 200.79 238.16C199.285 243.528 197.093 248.629 194.313 253.369C191.477 258.204 188.069 262.615 184.187 266.497C181.776 268.907 179.155 271.144 176.345 273.177C173.602 275.166 170.663 276.959 167.565 278.53ZM184.697 233.387C184.168 235.298 183.525 237.161 182.774 238.977C180.323 244.899 176.748 250.204 172.327 254.626C171.842 255.11 171.188 255.724 170.364 256.456C169.754 257.003 169.092 257.561 168.382 258.131L168.378 258.134L168.375 258.138C168.123 258.345 167.857 258.522 167.572 258.667L167.484 258.711L167.476 258.715L167.388 258.755C166.874 258.988 166.33 259.114 165.783 259.136H165.768L165.676 259.14H165.665H165.602H165.539H165.528L165.436 259.136H165.421C164.874 259.114 164.33 258.988 163.816 258.755L163.728 258.715L163.72 258.711L163.631 258.667C163.347 258.522 163.077 258.345 162.826 258.138L162.822 258.134C162.112 257.565 161.45 257.007 160.84 256.46C160.02 255.724 159.365 255.114 158.877 254.626C155.295 251.044 152.263 246.873 149.934 242.263C147.668 237.779 146.082 232.899 145.309 227.756C145.002 225.653 146.256 223.678 148.197 223.009C150.892 221.963 153.72 221.153 156.652 220.599C159.587 220.048 162.582 219.756 165.598 219.756C169.769 219.756 173.82 220.292 177.691 221.298C177.695 221.057 177.699 220.813 177.699 220.573C177.699 218.743 177.588 217.016 177.377 215.397C177.266 214.547 177.122 213.693 176.952 212.839C173.085 212.04 169.173 211.659 165.28 211.685C160.493 211.715 155.709 212.369 151.051 213.619C148.145 214.399 145.331 215.393 142.64 216.591C140.614 217.497 138.636 218.525 136.718 219.671V220.577C136.718 228.218 138.23 235.483 140.965 242.086C143.801 248.936 147.982 255.121 153.184 260.323C155.306 262.445 157.572 264.382 159.968 266.12C161.779 267.432 163.661 268.637 165.602 269.721C167.543 268.637 169.425 267.432 171.236 266.12C173.632 264.382 175.898 262.445 178.02 260.323C181.436 256.907 184.401 253.092 186.815 248.966C188.771 245.627 190.398 242.056 191.64 238.3C189.514 236.418 187.185 234.769 184.697 233.387ZM154.637 230.015C155.35 232.936 156.393 235.723 157.716 238.341C159.605 242.078 162.094 245.491 165.059 248.456C165.255 248.652 165.439 248.833 165.609 249.003C165.783 248.833 165.964 248.652 166.16 248.456C169.813 244.803 172.748 240.463 174.734 235.668C175.488 233.852 176.105 231.963 176.582 230.015C173.107 229.017 169.428 228.481 165.609 228.481C163.058 228.481 160.607 228.71 158.264 229.15C157.036 229.383 155.827 229.671 154.637 230.015Z" fill="#635BFF"/>
</svg>
