<svg width="380" height="250" viewBox="0 0 380 250" fill="none" xmlns="http://www.w3.org/2000/svg">
<g clip-path="url(#clip0_87_4)">
<rect width="380" height="250" rx="12" fill="url(#paint0_linear_87_4)"/>
<path d="M361 185.5C361 140.015 342.931 96.3937 310.769 64.2312C278.606 32.0687 234.985 14 189.5 14C144.015 14 100.394 32.0687 68.2312 64.2312C36.0687 96.3937 18 140.015 18 185.5L189.5 185.5H361Z" fill="url(#paint1_linear_87_4)" fill-opacity="0.2"/>
<path d="M343 185.5C343 144.789 326.828 105.746 298.041 76.9591C269.254 48.1723 230.211 32 189.5 32C148.789 32 109.746 48.1723 80.9591 76.9591C52.1723 105.746 36 144.789 36 185.5L189.5 185.5H343Z" fill="url(#paint2_linear_87_4)" fill-opacity="0.2"/>
<path d="M172.729 185.243C163.715 181.576 157.664 176.648 153.152 169.818C140.915 151.739 144.65 128.349 162.296 112.294C167.71 107.366 173.502 102.814 178.91 97.7541C187.541 89.7899 191.018 79.8013 188.956 68.1703C188.826 67.2854 188.826 66.2734 188.697 64C213.036 82.9641 214.709 107.239 210.202 133.659C218.186 129.738 220.247 125.313 222.309 107.996C239.696 132.397 240.209 175.885 206.466 186C214.968 170.829 213.295 157.81 199.768 146.555C192.427 140.615 185.728 134.542 187.66 123.547C174.532 133.154 174.148 146.427 176.076 160.713C170.538 157.427 169.766 153.003 168.994 148.197C163.715 160.586 161.912 172.847 172.729 185.242L172.729 185.243Z" fill="url(#paint3_linear_87_4)"/>
<path d="M189.251 65.0781C200.78 74.3274 206.981 84.8037 209.781 96.1533C212.655 107.798 211.958 120.393 209.709 133.574L209.545 134.538L210.423 134.107C214.481 132.114 217.095 129.957 218.929 126.063C220.646 122.416 221.667 117.266 222.646 109.358C230.778 121.369 234.91 137.673 233.065 152.292C231.213 166.97 223.35 179.899 207.5 185.147C211.349 177.911 212.89 171.113 211.871 164.73C210.801 158.022 206.917 151.853 200.088 146.171L200.082 146.166C196.408 143.193 192.958 140.234 190.656 136.675C188.37 133.14 187.209 129 188.152 123.634L188.368 122.409L187.365 123.144C180.702 128.019 177.258 133.842 175.735 140.26C174.293 146.339 174.58 152.932 175.441 159.716C173.305 158.257 172.031 156.604 171.201 154.814C170.253 152.769 169.875 150.53 169.487 148.117L169.213 146.407L168.534 148.001C165.882 154.225 164.08 160.467 164.325 166.736C164.551 172.488 166.499 178.227 171.025 183.97C163.132 180.431 157.698 175.792 153.569 169.543L153.565 169.538L153.011 168.697C141.605 150.972 145.418 128.327 162.633 112.664C165.332 110.207 168.126 107.843 170.93 105.454C173.729 103.069 176.536 100.66 179.249 98.1221C187.866 90.1706 191.429 80.2018 189.542 68.6348L189.448 68.083C189.347 67.3822 189.327 66.6088 189.251 65.0781Z" stroke="url(#paint4_linear_87_4)" stroke-opacity="0.1"/>
</g>
<defs>
<linearGradient id="paint0_linear_87_4" x1="190" y1="0" x2="190" y2="250" gradientUnits="userSpaceOnUse">
<stop stop-color="#635BFF"/>
<stop offset="1" stop-color="#635BFF" stop-opacity="0"/>
</linearGradient>
<linearGradient id="paint1_linear_87_4" x1="189.5" y1="14" x2="190.102" y2="136.758" gradientUnits="userSpaceOnUse">
<stop stop-color="white"/>
<stop offset="1" stop-color="white" stop-opacity="0"/>
</linearGradient>
<linearGradient id="paint2_linear_87_4" x1="189.5" y1="32" x2="190.039" y2="141.874" gradientUnits="userSpaceOnUse">
<stop stop-color="white"/>
<stop offset="1" stop-color="white" stop-opacity="0"/>
</linearGradient>
<linearGradient id="paint3_linear_87_4" x1="190" y1="64" x2="190" y2="186" gradientUnits="userSpaceOnUse">
<stop stop-color="#635BFF"/>
<stop offset="1" stop-color="#635BFF" stop-opacity="0"/>
</linearGradient>
<linearGradient id="paint4_linear_87_4" x1="190" y1="64" x2="190" y2="186" gradientUnits="userSpaceOnUse">
<stop/>
<stop offset="1" stop-opacity="0"/>
</linearGradient>
<clipPath id="clip0_87_4">
<rect width="380" height="250" rx="12" fill="white"/>
</clipPath>
</defs>
</svg>
