<svg width="103" height="24" viewBox="0 0 103 24" fill="none" xmlns="http://www.w3.org/2000/svg">
<g clip-path="url(#clip0_4_4)">
<path fill-rule="evenodd" clip-rule="evenodd" d="M87.9579 9.15086V0.536385H91.3953V22.789H87.9579V20.5005C86.6635 22.302 84.8061 23.2022 82.3877 23.2022C80.202 23.2022 78.3343 22.3967 76.7845 20.7857C75.2346 19.1747 74.4608 17.1938 74.4608 14.8407C74.4608 12.4888 75.2346 10.5068 76.7845 8.89577C78.3343 7.28469 80.2006 6.48029 82.3877 6.48029C84.8075 6.48029 86.6635 7.37047 87.9579 9.15086ZM79.3313 18.4962C80.2865 19.4499 81.4861 19.9267 82.9287 19.9267C84.3707 19.9267 85.5704 19.4499 86.5255 18.4962C87.4807 17.5214 87.9579 16.3024 87.9579 14.8407C87.9579 13.379 87.4807 12.1702 86.5255 11.2165C85.5704 10.2416 84.3707 9.7536 82.9287 9.7536C81.4847 9.7536 80.2865 10.2416 79.3313 11.2165C78.3761 12.1702 77.8989 13.3779 77.8989 14.8407C77.8989 16.2813 78.3761 17.5002 79.3313 18.4962Z" fill="white"/>
<path fill-rule="evenodd" clip-rule="evenodd" d="M42.4271 9.15086V0.536385H45.8645V22.789H42.4271V20.5005C41.1329 22.302 39.2753 23.2022 36.8565 23.2022C34.6709 23.2022 32.8032 22.3967 31.2536 20.7857C29.7039 19.1747 28.9296 17.1938 28.9296 14.8407C28.9296 12.4888 29.7039 10.5068 31.2536 8.89577C32.8032 7.28469 34.6698 6.48029 36.8565 6.48029C39.2764 6.48029 41.1329 7.37047 42.4271 9.15086ZM33.8007 18.4962C34.7557 19.4499 35.955 19.9267 37.3976 19.9267C38.8402 19.9267 40.0395 19.4499 40.9946 18.4962C41.9496 17.5214 42.4271 16.3024 42.4271 14.8407C42.4271 13.379 41.9496 12.1702 40.9946 11.2165C40.0395 10.2416 38.8402 9.7536 37.3976 9.7536C35.9539 9.7536 34.7557 10.2416 33.8007 11.2165C32.8457 12.1702 32.3682 13.3779 32.3682 14.8407C32.3682 16.2813 32.8457 17.5002 33.8007 18.4962Z" fill="white"/>
<path fill-rule="evenodd" clip-rule="evenodd" d="M97.4655 6.8937V9.56428C98.3361 7.5934 99.9704 6.60737 102.368 6.60737V10.3129H101.949H101.947C100.824 10.3163 99.8173 10.6383 98.9294 11.28C97.953 11.9797 97.4648 13.1451 97.4648 14.7773V22.7879H94.0259V6.8937H97.4655Z" fill="white"/>
<path fill-rule="evenodd" clip-rule="evenodd" d="M66.5993 6.4803C68.4458 6.4803 69.926 7.06855 71.0398 8.2451C72.1542 9.42158 72.7111 11.0159 72.7111 13.0292V22.7879H69.2737V13.3779C69.2737 12.1914 68.9557 11.28 68.3186 10.6438C67.6816 10.0077 66.8113 9.6901 65.7079 9.6901C64.4561 9.6901 63.4687 10.0767 62.7469 10.8499C62.025 11.6231 61.6647 12.7629 61.6647 14.267V22.7867H58.2273V6.89362H61.6647V8.92807C62.7268 7.29586 64.3713 6.4803 66.5993 6.4803Z" fill="white"/>
<path fill-rule="evenodd" clip-rule="evenodd" d="M53.2994 6.89362V5.16896C53.2994 4.42026 53.913 3.80751 54.6628 3.80751H57.0559V0.536385H54.6103C51.9985 0.536385 49.862 2.66995 49.862 5.27813V6.89362H48.6526H47.4432V10.1992H49.862V22.7879H53.3005V10.1992H57.057V6.89362H53.2994Z" fill="white"/>
<path fill-rule="evenodd" clip-rule="evenodd" d="M12.219 23.1811L12.1922 23.1945L12.1888 23.1967L12.1855 23.1989L12.1721 23.2045C12.0092 23.2791 11.8385 23.317 11.6689 23.3226H11.6645H11.6411H11.6277H11.6143H11.5908H11.5864C11.4168 23.317 11.2461 23.2791 11.0832 23.2045L11.0698 23.1989L11.0665 23.1967L11.0631 23.1945L11.0363 23.1811C10.1014 22.7087 9.21555 22.1684 8.3855 21.5667C7.53871 20.954 6.74767 20.2799 6.01913 19.5535C4.21843 17.7553 2.76359 15.5984 1.76617 13.1951C0.807801 10.8844 0.278957 8.35865 0.278957 5.71708C0.278957 5.65469 0.283432 5.4731 0.291242 5.18008C0.29682 4.96283 0.304624 4.78122 0.312433 4.63749C0.335862 4.18515 0.585769 3.79746 0.948368 3.58021C1.8052 3.02426 2.70222 2.53846 3.63046 2.12401C4.58883 1.69729 5.5684 1.34968 6.55912 1.08451C8.16234 0.655571 9.83032 0.430547 11.5216 0.419405C13.1361 0.409378 14.7638 0.599864 16.367 1.00095C16.8579 1.08451 17.2797 1.44438 17.4169 1.95688C17.5754 2.54849 17.6992 3.17017 17.784 3.81859C17.8688 4.46256 17.9122 5.09654 17.9122 5.71822C17.9122 6.10816 17.8967 6.49585 17.8654 6.87799C19.3772 7.59662 20.7417 8.56258 21.9031 9.7224C21.9756 9.79481 22.038 9.87394 22.0905 9.95863C22.2824 10.2616 22.3504 10.6427 22.2456 11.0148C21.7915 12.6325 21.1299 14.17 20.2909 15.5983C19.4352 17.0556 18.4065 18.3848 17.2351 19.5546C16.5076 20.281 15.7166 20.9551 14.8687 21.5678C14.0409 22.1672 13.1539 22.7076 12.219 23.1811ZM17.389 9.57648C17.2295 10.1525 17.0354 10.714 16.8088 11.261C16.0692 13.0458 14.9903 14.6447 13.6559 15.9771C13.5098 16.1231 13.3123 16.308 13.0636 16.5286C12.8795 16.6935 12.6797 16.8618 12.4655 17.0333L12.4644 17.0344L12.4633 17.0356C12.3874 17.0979 12.3071 17.1514 12.2212 17.1948L12.1944 17.2083L12.1922 17.2094L12.1654 17.2216C12.0103 17.2918 11.8463 17.3296 11.6812 17.3364H11.6768L11.6488 17.3375H11.6455H11.6266H11.6075H11.6042L11.5763 17.3364H11.5718C11.4068 17.3296 11.2427 17.2918 11.0877 17.2216L11.0609 17.2094L11.0586 17.2083L11.0318 17.1948C10.9459 17.1514 10.8645 17.0979 10.7886 17.0356L10.7875 17.0344C10.5734 16.8629 10.3736 16.6947 10.1895 16.5298C9.94183 16.3081 9.74435 16.1242 9.59713 15.9771C8.51604 14.8976 7.60119 13.6408 6.89832 12.2515C6.21438 10.9 5.73575 9.42939 5.50257 7.87961C5.40997 7.24567 5.78818 6.65075 6.37391 6.4491C7.18727 6.1338 8.04073 5.8898 8.9255 5.72268C9.8113 5.55668 10.715 5.46863 11.6254 5.46863C12.8839 5.46863 14.1067 5.63017 15.2748 5.93321C15.2759 5.86079 15.277 5.78726 15.277 5.71484C15.277 5.16335 15.2436 4.64305 15.18 4.15506C15.1465 3.89881 15.103 3.64146 15.0517 3.3841C13.8847 3.14344 12.7043 3.02867 11.5295 3.03647C10.0847 3.04539 8.64101 3.24258 7.2352 3.61916C6.35831 3.85424 5.50927 4.15395 4.69706 4.51493C4.08567 4.78789 3.48877 5.09763 2.90974 5.44301V5.71599C2.90974 8.01888 3.36605 10.2082 4.19165 12.198C5.04738 14.2624 6.30922 16.1264 7.87895 17.694C8.5194 18.3335 9.20325 18.9173 9.92625 19.441C10.4729 19.8365 11.0408 20.1996 11.6266 20.5261C12.2123 20.1996 12.7802 19.8365 13.3268 19.441C14.0498 18.9173 14.7337 18.3335 15.3741 17.694C16.405 16.6646 17.2997 15.5148 18.0283 14.2714C18.6185 13.2653 19.1094 12.1891 19.4842 11.0571C18.8428 10.4901 18.1399 9.99312 17.389 9.57648ZM8.31745 8.56032C8.53272 9.4405 8.84736 10.2806 9.24679 11.0693C9.81693 12.1958 10.5677 13.2241 11.4625 14.1177C11.5216 14.1767 11.5775 14.2313 11.6288 14.2825C11.6812 14.2313 11.7359 14.1767 11.795 14.1177C12.8973 13.0169 13.7831 11.7089 14.3822 10.2638C14.6099 9.71684 14.7962 9.1475 14.9401 8.56032C13.8913 8.2595 12.7813 8.09801 11.6288 8.09801C10.8589 8.09801 10.1193 8.16706 9.41193 8.29968C9.04154 8.36983 8.67665 8.45671 8.31745 8.56032Z" fill="white"/>
</g>
<defs>
<clipPath id="clip0_4_4">
<rect width="103" height="24" fill="white"/>
</clipPath>
</defs>
</svg>
