<svg width="42" height="43" viewBox="0 0 42 43" fill="none" xmlns="http://www.w3.org/2000/svg">
<g clip-path="url(#clip0_1_1806)">
<path opacity="0.2" d="M31.4148 33.3123C30.6906 33.2969 29.9846 33.0821 29.3746 32.6915C28.7646 32.3008 28.2742 31.7494 27.9573 31.098C27.6405 30.4466 27.5094 29.7204 27.5787 28.9993C27.6479 28.2783 27.9147 27.5903 28.3497 27.011C28.7847 26.4318 29.3711 25.9838 30.0443 25.7164C30.7175 25.4489 31.4514 25.3723 32.1654 25.4951C32.8793 25.6178 33.5455 25.9351 34.0907 26.4121C34.6359 26.8891 35.039 27.5072 35.2555 28.1984C36.8106 24.8875 37.1647 21.1385 36.257 17.5949C35.3494 14.0513 33.2366 10.9342 30.2813 8.77849C27.326 6.62279 23.7126 5.56297 20.0611 5.78093C16.4096 5.99888 12.9479 7.48103 10.27 9.97297C7.59219 12.4649 5.86522 15.8112 5.38554 19.4376C4.90587 23.064 5.7034 26.7442 7.64126 29.8467C9.57911 32.9492 12.5364 35.2804 16.0057 36.4403C19.4749 37.6001 23.2396 37.5162 26.6537 36.203C27.1131 35.3368 27.798 34.6108 28.6361 34.1019C29.4743 33.593 30.4344 33.3202 31.4148 33.3123Z" fill="#635BFF"/>
<path d="M28.875 17.5625L21 21.5V12.3125" stroke="#635BFF" stroke-width="3" stroke-linecap="round" stroke-linejoin="round"/>
<path d="M21 37.25C17.885 37.25 14.8399 36.3263 12.2498 34.5957C9.6597 32.865 7.64098 30.4052 6.4489 27.5273C5.25682 24.6493 4.94492 21.4825 5.55264 18.4273C6.16036 15.3721 7.6604 12.5658 9.86308 10.3631C12.0658 8.1604 14.8721 6.66036 17.9273 6.05264C20.9825 5.44492 24.1493 5.75682 27.0273 6.9489C29.9052 8.14098 32.365 10.1597 34.0957 12.7498C35.8263 15.3399 36.75 18.385 36.75 21.5" stroke="#635BFF" stroke-width="3" stroke-linecap="round" stroke-linejoin="round"/>
<path d="M26.25 37.25C26.8521 34.9859 28.9734 33.3125 31.5 33.3125C34.0266 33.3125 36.1479 34.9859 36.75 37.25" stroke="#635BFF" stroke-width="3" stroke-linecap="round" stroke-linejoin="round"/>
<path d="M31.5 33.3125C33.6746 33.3125 35.4375 31.5496 35.4375 29.375C35.4375 27.2004 33.6746 25.4375 31.5 25.4375C29.3254 25.4375 27.5625 27.2004 27.5625 29.375C27.5625 31.5496 29.3254 33.3125 31.5 33.3125Z" stroke="#635BFF" stroke-width="3" stroke-linecap="round" stroke-linejoin="round"/>
</g>
<defs>
<clipPath id="clip0_1_1806">
<rect width="42" height="42" fill="white" transform="translate(0 0.5)"/>
</clipPath>
</defs>
</svg>
