<svg width="42" height="43" viewBox="0 0 42 43" fill="none" xmlns="http://www.w3.org/2000/svg">
<g clip-path="url(#clip0_1_1843)">
<path opacity="0.2" d="M21 32C26.799 32 31.5 27.299 31.5 21.5C31.5 15.701 26.799 11 21 11C15.201 11 10.5 15.701 10.5 21.5C10.5 27.299 15.201 32 21 32Z" fill="#635BFF"/>
<path d="M29.5312 7.0625H35.4375V12.9688" stroke="#635BFF" stroke-width="2" stroke-linecap="round" stroke-linejoin="round"/>
<path d="M29.5312 35.9375H35.4375V30.0312" stroke="#635BFF" stroke-width="2" stroke-linecap="round" stroke-linejoin="round"/>
<path d="M12.4688 35.9375H6.5625V30.0312" stroke="#635BFF" stroke-width="2" stroke-linecap="round" stroke-linejoin="round"/>
<path d="M12.4688 7.0625H6.5625V12.9688" stroke="#635BFF" stroke-width="2" stroke-linecap="round" stroke-linejoin="round"/>
<path d="M21 32C26.799 32 31.5 27.299 31.5 21.5C31.5 15.701 26.799 11 21 11C15.201 11 10.5 15.701 10.5 21.5C10.5 27.299 15.201 32 21 32Z" stroke="#635BFF" stroke-width="2" stroke-linecap="round" stroke-linejoin="round"/>
<path d="M17.0625 21.5C18.1498 21.5 19.0312 20.6186 19.0312 19.5312C19.0312 18.4439 18.1498 17.5625 17.0625 17.5625C15.9752 17.5625 15.0938 18.4439 15.0938 19.5312C15.0938 20.6186 15.9752 21.5 17.0625 21.5Z" fill="#635BFF"/>
<path d="M24.9375 21.5C26.0248 21.5 26.9062 20.6186 26.9062 19.5312C26.9062 18.4439 26.0248 17.5625 24.9375 17.5625C23.8502 17.5625 22.9688 18.4439 22.9688 19.5312C22.9688 20.6186 23.8502 21.5 24.9375 21.5Z" fill="#635BFF"/>
<path d="M24.9375 25.4375C24.0122 26.2578 22.3322 26.75 21 26.75C19.6678 26.75 17.9878 26.2578 17.0625 25.4375" stroke="#635BFF" stroke-width="2" stroke-linecap="round" stroke-linejoin="round"/>
</g>
<defs>
<clipPath id="clip0_1_1843">
<rect width="42" height="42" fill="white" transform="translate(0 0.5)"/>
</clipPath>
</defs>
</svg>
