<svg width="593" height="661" viewBox="0 0 593 661" fill="none" xmlns="http://www.w3.org/2000/svg">
<rect width="593" height="661" rx="32" fill="#635BFF" fill-opacity="0.1"/>
<path fill-rule="evenodd" clip-rule="evenodd" d="M418.538 321.763V292.468H429.928V368.14H418.538V360.358C414.25 366.484 408.094 369.545 400.079 369.545C392.837 369.545 386.648 366.806 381.513 361.328C376.378 355.849 373.812 349.113 373.812 341.111C373.812 333.113 376.378 326.373 381.513 320.895C386.648 315.416 392.833 312.681 400.079 312.681C408.098 312.681 414.25 315.708 418.538 321.763ZM389.953 353.542C393.118 356.785 397.092 358.407 401.872 358.407C406.652 358.407 410.627 356.785 413.791 353.542C416.956 350.227 418.538 346.082 418.538 341.111C418.538 336.141 416.956 332.03 413.791 328.787C410.627 325.472 406.652 323.812 401.872 323.812C397.088 323.812 393.118 325.472 389.953 328.787C386.788 332.03 385.206 336.137 385.206 341.111C385.206 346.01 386.788 350.155 389.953 353.542Z" fill="#635BFF"/>
<path fill-rule="evenodd" clip-rule="evenodd" d="M267.665 321.763V292.468H279.055V368.14H267.665V360.358C263.376 366.484 257.221 369.545 249.206 369.545C241.963 369.545 235.774 366.806 230.639 361.328C225.504 355.849 222.938 349.113 222.938 341.111C222.938 333.113 225.504 326.373 230.639 320.895C235.774 315.416 241.959 312.681 249.206 312.681C257.224 312.681 263.376 315.708 267.665 321.763ZM239.08 353.542C242.244 356.785 246.218 358.407 250.999 358.407C255.779 358.407 259.753 356.785 262.918 353.542C266.082 350.227 267.665 346.082 267.665 341.111C267.665 336.141 266.082 332.03 262.918 328.787C259.753 325.472 255.779 323.812 250.999 323.812C246.215 323.812 242.244 325.472 239.08 328.787C235.915 332.03 234.333 336.137 234.333 341.111C234.333 346.01 235.915 350.155 239.08 353.542Z" fill="#635BFF"/>
<path fill-rule="evenodd" clip-rule="evenodd" d="M450.044 314.087V323.168C452.927 316.466 458.344 313.113 466.288 313.113V325.714H464.898H464.895C461.172 325.726 457.837 326.821 454.894 329.003C451.659 331.382 450.04 335.345 450.04 340.896V368.136H438.646V314.087H450.044Z" fill="#635BFF"/>
<path fill-rule="evenodd" clip-rule="evenodd" d="M347.763 312.682C353.882 312.682 358.788 314.682 362.477 318.683C366.17 322.684 368.015 328.105 368.015 334.952V368.137H356.625V336.137C356.625 332.103 355.571 329.003 353.46 326.84C351.349 324.677 348.466 323.597 344.809 323.597C340.661 323.597 337.389 324.912 334.997 327.541C332.606 330.17 331.411 334.046 331.411 339.161V368.133H320.021V314.087H331.411V321.005C334.931 315.455 340.38 312.682 347.763 312.682Z" fill="#635BFF"/>
<path fill-rule="evenodd" clip-rule="evenodd" d="M303.692 314.087V308.222C303.692 305.676 305.725 303.592 308.209 303.592H316.139V292.468H308.036C299.381 292.468 292.301 299.724 292.301 308.593V314.087H288.294H284.286V325.328H292.301V368.136H303.695V325.328H316.143V314.087H303.692Z" fill="#635BFF"/>
<path fill-rule="evenodd" clip-rule="evenodd" d="M167.565 369.474L167.476 369.519L167.465 369.527L167.454 369.535L167.41 369.553C166.87 369.807 166.304 369.936 165.742 369.955H165.728H165.65H165.606H165.561H165.484H165.469C164.907 369.936 164.341 369.807 163.802 369.553L163.757 369.535L163.746 369.527L163.735 369.519L163.646 369.474C160.548 367.868 157.613 366.03 154.862 363.984C152.056 361.9 149.435 359.608 147.021 357.138C141.054 351.023 136.233 343.688 132.928 335.516C129.752 327.658 128 319.069 128 310.086C128 309.874 128.015 309.257 128.041 308.26C128.059 307.521 128.085 306.904 128.111 306.415C128.189 304.877 129.017 303.558 130.218 302.82C133.057 300.929 136.03 299.277 139.106 297.868C142.281 296.417 145.527 295.235 148.81 294.333C154.123 292.874 159.65 292.109 165.254 292.071C170.604 292.037 175.998 292.685 181.31 294.049C182.937 294.333 184.335 295.557 184.789 297.299C185.314 299.311 185.725 301.425 186.006 303.63C186.287 305.82 186.431 307.976 186.431 310.09C186.431 311.416 186.379 312.735 186.275 314.034C191.285 316.478 195.806 319.763 199.655 323.707C199.895 323.953 200.102 324.222 200.276 324.51C200.912 325.54 201.137 326.836 200.79 328.102C199.285 333.603 197.093 338.831 194.313 343.688C191.477 348.644 188.069 353.164 184.187 357.142C181.776 359.612 179.155 361.904 176.345 363.988C173.602 366.026 170.663 367.864 167.565 369.474ZM184.697 323.21C184.168 325.169 183.525 327.079 182.774 328.939C180.323 335.008 176.748 340.445 172.327 344.976C171.842 345.473 171.188 346.102 170.364 346.852C169.754 347.412 169.092 347.985 168.382 348.568L168.378 348.572L168.375 348.576C168.123 348.788 167.857 348.97 167.572 349.117L167.484 349.163L167.476 349.167L167.388 349.208C166.874 349.447 166.33 349.576 165.783 349.598H165.768L165.676 349.602H165.665H165.602H165.539H165.528L165.436 349.598H165.421C164.874 349.576 164.33 349.447 163.816 349.208L163.728 349.167L163.72 349.163L163.631 349.117C163.347 348.97 163.077 348.788 162.826 348.576L162.822 348.572C162.112 347.988 161.45 347.416 160.84 346.856C160.02 346.102 159.365 345.476 158.877 344.976C155.295 341.305 152.263 337.032 149.934 332.307C147.668 327.711 146.082 322.71 145.309 317.44C145.002 315.284 146.256 313.261 148.197 312.576C150.892 311.503 153.72 310.674 156.652 310.105C159.587 309.541 162.582 309.241 165.598 309.241C169.769 309.241 173.82 309.791 177.691 310.821C177.695 310.575 177.699 310.325 177.699 310.079C177.699 308.203 177.588 306.434 177.377 304.774C177.266 303.903 177.122 303.028 176.952 302.153C173.085 301.334 169.173 300.944 165.28 300.971C160.493 301.001 155.709 301.672 151.051 302.952C148.145 303.752 145.331 304.771 142.64 305.998C140.614 306.926 138.636 307.98 136.718 309.154V310.083C136.718 317.914 138.23 325.358 140.965 332.125C143.801 339.145 147.982 345.484 153.184 350.815C155.306 352.989 157.572 354.975 159.968 356.755C161.779 358.1 163.661 359.335 165.602 360.445C167.543 359.335 169.425 358.1 171.236 356.755C173.632 354.975 175.898 352.989 178.02 350.815C181.436 347.314 184.401 343.404 186.815 339.176C188.771 335.755 190.398 332.095 191.64 328.245C189.514 326.317 187.185 324.627 184.697 323.21ZM154.637 319.755C155.35 322.748 156.393 325.605 157.716 328.287C159.605 332.117 162.094 335.615 165.059 338.653C165.255 338.854 165.439 339.04 165.609 339.214C165.783 339.04 165.964 338.854 166.16 338.653C169.813 334.91 172.748 330.462 174.734 325.548C175.488 323.688 176.105 321.752 176.582 319.755C173.107 318.732 169.428 318.183 165.609 318.183C163.058 318.183 160.607 318.418 158.264 318.868C157.036 319.107 155.827 319.403 154.637 319.755Z" fill="#635BFF"/>
</svg>
