<svg width="42" height="43" viewBox="0 0 42 43" fill="none" xmlns="http://www.w3.org/2000/svg">
<g clip-path="url(#clip0_1_1833)">
<path opacity="0.2" d="M21.0001 31.5227L29.9776 37.0434C30.2105 37.1848 30.4801 37.254 30.7524 37.2422C31.0246 37.2304 31.2872 37.1381 31.507 36.9771C31.7269 36.8161 31.894 36.5936 31.9874 36.3376C32.0808 36.0816 32.0962 35.8037 32.0316 35.5389L29.5904 25.2374L37.5802 18.3468C37.7839 18.1679 37.9308 17.9333 38.0027 17.6719C38.0746 17.4105 38.0684 17.1338 37.9848 16.8759C37.9012 16.618 37.7439 16.3903 37.5324 16.2207C37.3208 16.0512 37.0643 15.9473 36.7944 15.922L26.3091 15.0688L22.2699 5.29072C22.1669 5.03845 21.9912 4.82258 21.765 4.67062C21.5388 4.51866 21.2725 4.4375 21.0001 4.4375C20.7276 4.4375 20.4613 4.51866 20.2351 4.67062C20.009 4.82258 19.8332 5.03845 19.7302 5.29072L15.691 15.0688L5.20578 15.922C4.93403 15.9458 4.67534 16.0492 4.46203 16.2193C4.24872 16.3893 4.09024 16.6184 4.0064 16.878C3.92255 17.1376 3.91706 17.4161 3.9906 17.6788C4.06415 17.9415 4.21347 18.1767 4.41992 18.355L12.4098 25.2456L9.96851 35.5389C9.90397 35.8037 9.91936 36.0816 10.0127 36.3376C10.1061 36.5936 10.2733 36.8161 10.4931 36.9771C10.7129 37.1381 10.9756 37.2304 11.2478 37.2422C11.52 37.254 11.7896 37.1848 12.0226 37.0434L21.0001 31.5227Z" fill="#635BFF"/>
<path d="M21.0001 31.5227L29.9776 37.0434C30.2105 37.1848 30.4801 37.254 30.7524 37.2422C31.0246 37.2304 31.2872 37.1381 31.507 36.9771C31.7269 36.8161 31.894 36.5936 31.9874 36.3376C32.0808 36.0816 32.0962 35.8037 32.0316 35.5389L29.5904 25.2374L37.5802 18.3468C37.7839 18.1679 37.9308 17.9333 38.0027 17.6719C38.0746 17.4105 38.0684 17.1338 37.9848 16.8759C37.9012 16.618 37.7439 16.3903 37.5324 16.2207C37.3208 16.0512 37.0643 15.9473 36.7944 15.922L26.3091 15.0688L22.2699 5.29072C22.1669 5.03845 21.9912 4.82258 21.765 4.67062C21.5388 4.51866 21.2725 4.4375 21.0001 4.4375C20.7276 4.4375 20.4613 4.51866 20.2351 4.67062C20.009 4.82258 19.8332 5.03845 19.7302 5.29072L15.691 15.0688L5.20578 15.922C4.93403 15.9458 4.67534 16.0492 4.46203 16.2193C4.24872 16.3893 4.09024 16.6184 4.0064 16.878C3.92255 17.1376 3.91706 17.4161 3.9906 17.6788C4.06415 17.9415 4.21347 18.1767 4.41992 18.355L12.4098 25.2456L9.96851 35.5389C9.90397 35.8037 9.91936 36.0816 10.0127 36.3376C10.1061 36.5936 10.2733 36.8161 10.4931 36.9771C10.7129 37.1381 10.9756 37.2304 11.2478 37.2422C11.52 37.254 11.7896 37.1848 12.0226 37.0434L21.0001 31.5227Z" stroke="#635BFF" stroke-width="3" stroke-linecap="round" stroke-linejoin="round"/>
</g>
<defs>
<clipPath id="clip0_1_1833">
<rect width="42" height="42" fill="white" transform="translate(0 0.5)"/>
</clipPath>
</defs>
</svg>
